<svg width="593" height="416" viewBox="0 0 593 416" fill="none" xmlns="http://www.w3.org/2000/svg">
<g clip-path="url(#clip0_106_248)">
<path d="M454.015 411.296C446.423 403.768 441.811 391.877 443.021 380.301C444.23 368.725 451.72 358.083 461.437 355.625C471.153 353.166 482.228 359.971 485.18 371.108C486.804 349.637 488.675 327.266 498.404 308.981C507.213 292.424 522.471 280.578 539.007 278.458C555.543 276.339 572.953 284.343 583.265 299.658C593.578 314.972 596.103 337.236 588.88 354.818C583.56 367.771 573.757 377.41 563.486 385.252C530.297 410.378 490.491 420.597 451.393 414.026L454.015 411.296Z" fill="#F2F2F2"/>
<path d="M566.914 284.787C553.269 297.827 540.752 312.412 529.543 328.329C512.002 353.155 497.806 380.99 487.453 410.863C486.695 413.042 489.711 413.991 490.46 411.835C507.401 363.285 534.445 320.494 569.119 287.375C570.676 285.887 568.458 283.312 566.914 284.787Z" fill="white"/>
<path d="M190.896 409.25C201.324 398.912 207.658 382.579 205.997 366.679C204.336 350.78 194.048 336.163 180.702 332.786C167.357 329.41 152.145 338.756 148.091 354.053C145.861 324.562 143.29 293.835 129.928 268.721C117.828 245.981 96.8719 229.709 74.1599 226.798C51.4479 223.887 27.5351 234.881 13.3705 255.916C-0.79414 276.95 -4.26229 307.53 5.65825 331.679C12.9664 349.469 26.4305 362.708 40.5375 373.479C85.5439 407.842 141.374 422.174 194.498 413" fill="#F2F2F2"/>
<path d="M35.83 235.491C54.5702 253.402 71.7623 273.433 87.1577 295.296C102.556 317.137 116.112 340.678 127.636 365.59C134.077 379.564 139.864 393.941 144.969 408.656C146.01 411.649 141.868 412.952 140.839 409.992C131.795 384.05 120.607 359.211 107.434 335.83C94.3246 312.534 79.3206 290.785 62.6324 270.889C53.1935 259.641 43.2346 249.01 32.8009 239.045C30.6623 237.002 33.709 233.464 35.83 235.491L35.83 235.491Z" fill="white"/>
<path d="M425.665 415.089H176.878V115.569C176.878 51.844 221.061 0 275.37 0H327.173C381.481 0 425.665 51.844 425.665 115.569V415.089Z" fill="#F2F2F2"/>
<path d="M373.863 415.09H176.878V115.569C176.823 91.1513 183.413 67.3504 195.687 47.632C196.139 46.9084 196.591 46.1941 197.056 45.4877C202.993 36.3509 210.058 28.3044 218.019 21.6136C218.468 21.2297 218.92 20.8524 219.378 20.4752C226.039 15.0666 233.244 10.6451 240.83 7.3115C241.28 7.11117 241.739 6.91043 242.197 6.7179C249.058 3.84513 256.169 1.87729 263.401 0.850727C263.849 0.778866 264.31 0.722634 264.77 0.666401C271.817 -0.217739 278.924 -0.217739 285.972 0.666401C286.431 0.722634 286.891 0.778859 287.345 0.851496C294.574 1.87813 301.684 3.84572 308.543 6.71794C309.002 6.91047 309.46 7.11119 309.912 7.31192C317.404 10.6035 324.525 14.959 331.114 20.2811C331.572 20.6502 332.031 21.0274 332.482 21.4046C336.944 25.1418 341.135 29.3053 345.012 33.8525C348.122 37.4999 351.019 41.3878 353.685 45.49C354.149 46.1942 354.601 46.9084 355.052 47.6309C367.327 67.3495 373.917 91.1509 373.863 115.569V415.09Z" fill="#CCCCCC"/>
<path d="M357.845 281.125C363.868 281.125 368.75 275.396 368.75 268.329C368.75 261.261 363.868 255.532 357.845 255.532C351.822 255.532 346.939 261.261 346.939 268.329C346.939 275.396 351.822 281.125 357.845 281.125Z" fill="#DA7676"/>
<path d="M405.284 406.118H396.928L392.952 368.298L405.285 368.299L405.284 406.118Z" fill="#FFB8B8"/>
<path d="M390.959 403.316H407.074V415.223H380.812C380.812 413.659 381.074 412.111 381.584 410.666C382.094 409.222 382.841 407.909 383.784 406.804C384.726 405.698 385.844 404.821 387.075 404.223C388.307 403.624 389.626 403.316 390.959 403.316Z" fill="#2F2E41"/>
<path d="M446.862 406.118H438.506L434.53 368.298L446.864 368.299L446.862 406.118Z" fill="#FFB8B8"/>
<path d="M432.537 403.316H448.653V415.223H422.39C422.39 413.659 422.652 412.111 423.162 410.666C423.672 409.222 424.419 407.909 425.362 406.804C426.304 405.698 427.423 404.821 428.654 404.223C429.885 403.624 431.204 403.316 432.537 403.316Z" fill="#2F2E41"/>
<path d="M363.364 270.864C362.763 269.824 362.363 268.643 362.194 267.403C362.024 266.163 362.087 264.894 362.38 263.686C362.674 262.478 363.189 261.36 363.89 260.411C364.591 259.462 365.461 258.704 366.439 258.192L394.845 166.324L408.823 175.274L376.389 263.068C377.013 265.051 376.995 267.235 376.339 269.205C375.682 271.174 374.433 272.793 372.828 273.754C371.222 274.715 369.372 274.951 367.628 274.419C365.884 273.886 364.367 272.621 363.364 270.864Z" fill="#FFB8B8"/>
<path d="M442.594 288.126C441.665 287.501 440.864 286.645 440.248 285.618C439.632 284.591 439.215 283.418 439.027 282.181C438.839 280.945 438.885 279.675 439.16 278.461C439.436 277.247 439.935 276.119 440.622 275.156L431.822 177.975L447.729 178.827L451.386 274.418C452.688 275.88 453.488 277.852 453.635 279.96C453.781 282.068 453.263 284.165 452.179 285.855C451.095 287.544 449.521 288.709 447.754 289.127C445.988 289.546 444.151 289.19 442.594 288.126Z" fill="#FFB8B8"/>
<path d="M417.217 149.307C426.463 149.307 433.958 140.512 433.958 129.663C433.958 118.815 426.463 110.02 417.217 110.02C407.971 110.02 400.476 118.815 400.476 129.663C400.476 140.512 407.971 149.307 417.217 149.307Z" fill="#FFB8B8"/>
<path d="M442.487 266.024H392.016L392.076 265.563C392.167 264.874 401.071 196.43 394.504 174.039C393.845 171.838 393.903 169.43 394.667 167.276C395.431 165.123 396.846 163.377 398.641 162.375H398.641C408.028 157.188 426.047 150.801 441.255 166.301C443.493 168.62 445.241 171.517 446.36 174.765C447.479 178.013 447.939 181.521 447.703 185.013L442.487 266.024Z" fill="#DA7676"/>
<path d="M401.709 206.545L378.987 201.136L389.638 171.52C390.275 168.652 391.856 166.197 394.034 164.695C396.212 163.192 398.808 162.764 401.255 163.505C403.701 164.246 405.797 166.095 407.082 168.647C408.368 171.199 408.739 174.245 408.113 177.117L401.709 206.545Z" fill="#DA7676"/>
<path d="M430.811 216.589L429.445 179.845C428.41 172.938 431.779 166.409 436.962 165.341C442.146 164.278 447.208 169.069 448.248 176.027L453.383 210.36L430.811 216.589Z" fill="#DA7676"/>
<path d="M440.808 261.625C448.929 297.917 449.815 344.059 447.624 394.39L436.718 392.79L416.951 296.816L406.046 394.39L393.777 393.59C390.111 340.78 386.542 295.444 392.413 265.624L440.808 261.625Z" fill="#2F2E41"/>
<path d="M428.248 144.845C425.125 148.748 419.324 146.653 418.918 141.32C418.886 140.906 418.888 140.489 418.924 140.076C419.135 137.713 420.298 135.569 420.019 133.075C419.956 132.454 419.759 131.862 419.446 131.356C416.958 127.445 411.116 133.105 408.767 129.565C407.327 127.394 409.02 123.977 407.914 121.551C406.456 118.349 402.135 119.928 399.426 118.175C396.411 116.224 396.591 110.796 398.576 107.495C400.996 103.469 405.239 101.321 409.429 101.012C413.62 100.702 417.781 102.031 421.693 103.82C426.138 105.853 430.546 108.662 433.281 113.248C436.607 118.825 436.927 126.322 435.264 132.844C434.252 136.811 430.798 141.657 428.248 144.845Z" fill="#2F2E41"/>
<path d="M572.539 415.604H69.3112C69.0963 415.603 68.8905 415.503 68.7388 415.324C68.5871 415.146 68.502 414.904 68.502 414.652C68.502 414.4 68.5871 414.158 68.7388 413.979C68.8905 413.801 69.0963 413.7 69.3112 413.699H572.539C572.754 413.7 572.96 413.801 573.112 413.979C573.263 414.158 573.348 414.4 573.348 414.652C573.348 414.904 573.263 415.146 573.112 415.324C572.96 415.503 572.754 415.603 572.539 415.604Z" fill="#3F3D56"/>
<path d="M319.675 328.313H231.065C229.899 328.32 228.777 327.784 227.946 326.822C227.116 325.86 226.644 324.551 226.635 323.182V91.108C226.644 89.7387 227.116 88.4296 227.946 87.4677C228.777 86.5058 229.899 85.9698 231.065 85.9771H319.675C320.842 85.9698 321.964 86.5058 322.794 87.4677C323.625 88.4296 324.096 89.7387 324.105 91.108V323.182C324.096 324.551 323.625 325.86 322.794 326.822C321.964 327.784 320.842 328.32 319.675 328.313Z" fill="white"/>
<path d="M324.105 161.069H226.635V162.668H324.105V161.069Z" fill="#CCCCCC"/>
<path d="M324.446 252.333H226.976V253.932H324.446V252.333Z" fill="#CCCCCC"/>
<path d="M258.671 85.9771H257.307V329.112H258.671V85.9771Z" fill="#CCCCCC"/>
<path d="M292.751 85.9771H291.388V329.112H292.751V85.9771Z" fill="#CCCCCC"/>
</g>
<defs>
<clipPath id="clip0_106_248">
<rect width="593" height="416" fill="white"/>
</clipPath>
</defs>
</svg>
